<svg width="24" height="24" viewBox="0 0 24 24" fill="none" xmlns="http://www.w3.org/2000/svg" className="self-stretch flex-grow relative" preserveAspectRatio="none">
	<path d="M20.8 2.23823V16.9967C20.791 17.6531 20.5633 18.2877 20.153 18.8002C19.742 19.3134 19.1713 19.6746 18.5315 19.8265C17.8918 19.9783 17.2197 19.9121 16.6219 19.6383C16.0241 19.3645 15.5349 18.8988 15.232 18.3152C14.9291 17.7316 14.8298 17.0636 14.95 16.4171C15.0701 15.7707 15.4028 15.1829 15.8952 14.7471C16.3876 14.3114 17.0114 14.0526 17.6677 14.0119C18.3239 13.9712 18.975 14.1509 19.5174 14.5225L20.3 15.0586V14.11V3.48999V2.86109L19.6873 3.00285L9.4873 5.36285L9.10001 5.45246V5.84999L9.10001 18.75L9.10001 18.7509C9.10117 19.4102 8.8814 20.051 8.47578 20.5708C8.07017 21.0906 7.50209 21.4596 6.86224 21.6188C6.22239 21.778 5.54765 21.7182 4.94574 21.449C4.34383 21.1799 3.84944 20.7168 3.5415 20.1338C3.23356 19.5507 3.12983 18.8814 3.24685 18.2325C3.36387 17.5836 3.69491 16.9926 4.18712 16.5539C4.67933 16.1151 5.30433 15.854 5.96235 15.812C6.62037 15.7701 7.27347 15.9498 7.8174 16.3225L8.60001 16.8587V15.91V5.04792L20.8 2.23823ZM5.88351 21.1406L5.94804 21.2051L6.16235 21.1998C6.49069 21.1917 6.81421 21.119 7.11443 20.9858C7.41465 20.8526 7.68568 20.6616 7.91205 20.4236C8.13841 20.1857 8.31566 19.9054 8.43368 19.5989C8.55094 19.2944 8.60743 18.9699 8.6 18.6437C8.59876 18.1514 8.45222 17.6704 8.17869 17.2611C7.90398 16.8499 7.51354 16.5295 7.05672 16.3403C6.59991 16.1511 6.09724 16.1016 5.61229 16.198C5.12733 16.2945 4.68188 16.5326 4.33224 16.8822C3.98261 17.2318 3.74451 17.6773 3.64805 18.1623C3.55159 18.6472 3.60109 19.1499 3.79031 19.6067C3.97953 20.0635 4.29996 20.454 4.71109 20.7287C5.06195 20.9631 5.46543 21.1043 5.88351 21.1406ZM17.5782 19.3353L17.6479 19.4049L19.8 17L20.2994 17.0254C20.2994 17.0252 20.2994 17.025 20.2994 17.0248C20.3241 16.5386 20.2033 16.056 19.9525 15.6387C19.7016 15.2212 19.332 14.888 18.8909 14.6816C18.4497 14.4752 17.957 14.4049 17.4757 14.4798C16.9945 14.5548 16.5464 14.7714 16.1889 15.1021C15.8313 15.4329 15.5805 15.8627 15.4683 16.3367C15.3562 16.8107 15.3879 17.3073 15.5594 17.7632C15.7309 18.2191 16.0343 18.6135 16.431 18.8961C16.7708 19.1382 17.1659 19.2888 17.5782 19.3353Z" fill="#FCFCFC" stroke="#FCFCFC"></path>
</svg>
