<svg width="24" height="24" viewBox="0 0 24 24" fill="none" xmlns="http://www.w3.org/2000/svg" className="self-stretch flex-grow relative" preserveAspectRatio="none">
	<path d="M19.6089 5.94146L19.6095 5.94226C20.7522 7.37127 21.4674 9.09432 21.6725 10.9125C21.8777 12.7306 21.5644 14.5697 20.7689 16.2174C19.9734 17.8651 18.7281 19.2542 17.1767 20.2243C15.6254 21.1945 13.8313 21.706 12.0017 21.7L11.998 21.7C11.6292 21.7015 11.2606 21.6825 10.8939 21.6429C9.62682 21.5055 8.39961 21.118 7.28342 20.5028C6.16723 19.8876 5.18426 19.0569 4.39151 18.059L4.39115 18.0585C2.78432 16.0406 2.04495 13.4669 2.33569 10.9038C2.62643 8.34064 3.92346 5.99798 5.94145 4.39115C7.95945 2.78432 10.5331 2.04495 13.0962 2.33569C15.6594 2.62643 18.002 3.92346 19.6089 5.94146ZM13.057 2.85326L13.057 2.85325L13.0534 2.85286C12.7029 2.81523 12.3505 2.79759 11.998 2.8C10.2244 2.80186 8.48915 3.31635 7.00115 4.28153C5.51271 5.24699 4.33517 6.62223 3.61039 8.24157C2.88561 9.8609 2.64451 11.6553 2.91612 13.4085C3.18774 15.1617 3.96048 16.799 5.14127 18.1231C6.32206 19.4472 7.86052 20.4017 9.57132 20.8715C11.2821 21.3414 13.0923 21.3065 14.7837 20.7712C16.4751 20.2358 17.9757 19.2229 19.1047 17.8543C20.2336 16.4857 20.9428 14.8199 21.1467 13.0575C21.2866 11.8562 21.1882 10.6391 20.8573 9.47591C20.5264 8.31256 19.9693 7.22588 19.2179 6.27806C18.4665 5.33024 17.5356 4.53989 16.4784 3.95222C15.4213 3.36456 14.2586 2.99111 13.057 2.85326Z" fill="#FCFCFC" stroke="#FCFCFC"></path>
	<path d="M10.6111 9.92133C11.0222 9.64662 11.5055 9.5 12 9.5C12.663 9.5 13.2989 9.76339 13.7678 10.2322C14.2366 10.7011 14.5 11.337 14.5 12C14.5 12.4945 14.3534 12.9778 14.0787 13.3889C13.804 13.8 13.4135 14.1205 12.9567 14.3097C12.4999 14.4989 11.9972 14.5484 11.5123 14.452C11.0273 14.3555 10.5819 14.1174 10.2322 13.7678C9.8826 13.4181 9.6445 12.9727 9.54804 12.4877C9.45158 12.0028 9.50108 11.5001 9.6903 11.0433C9.87952 10.5865 10.2 10.196 10.6111 9.92133ZM10.8889 13.6629C11.2178 13.8827 11.6044 14 12 14C12.5304 14 13.0391 13.7893 13.4142 13.4142C13.7893 13.0391 14 12.5304 14 12C14 11.6044 13.8827 11.2178 13.6629 10.8889C13.4432 10.56 13.1308 10.3036 12.7654 10.1522C12.3999 10.0009 11.9978 9.96126 11.6098 10.0384C11.2219 10.1156 10.8655 10.3061 10.5858 10.5858C10.3061 10.8655 10.1156 11.2219 10.0384 11.6098C9.96126 11.9978 10.0009 12.3999 10.1522 12.7654C10.3036 13.1308 10.56 13.4432 10.8889 13.6629Z" fill="#FCFCFC" stroke="#FCFCFC"></path>
</svg>
