<svg width="24" height="24" viewBox="0 0 24 24" fill="none" xmlns="http://www.w3.org/2000/svg" className="self-stretch flex-grow relative" preserveAspectRatio="none">
	<path d="M16.8649 3.10721C17.9071 3.29271 18.8669 3.79358 19.6149 4.5417L19.6064 4.55347C20.3318 5.27905 20.8264 6.20301 21.0279 7.20905C21.2293 8.2151 21.1286 9.25825 20.7385 10.2072C20.3484 11.1562 19.6863 11.9685 18.8355 12.542C17.9851 13.1151 16.9843 13.4241 15.9588 13.43C15.9035 13.4299 15.844 13.4226 15.7491 13.4096C15.7449 13.409 15.7406 13.4084 15.7363 13.4078C15.6525 13.3963 15.5337 13.38 15.41 13.38H15.2317L15.0936 13.4928L5.6538 21.2066L2.99333 18.5462L10.7072 9.10634L10.8391 8.94496L10.8173 8.73769C10.7052 7.67136 10.9274 6.59657 11.4532 5.66212C11.9789 4.72767 12.7822 3.9798 13.7518 3.52205C14.7213 3.06431 15.8092 2.91934 16.8649 3.10721ZM5.38645 20.2135L5.70579 20.5329L6.05588 20.2475L13.9459 13.8175L14.5806 13.3003L13.8305 12.9719C12.678 12.4674 11.7592 11.5453 11.2587 10.3911L10.932 9.63751L10.4127 10.2738L3.97266 18.1638L3.68687 18.5139L4.00645 18.8335L5.38645 20.2135ZM16.8971 12.8497C17.4499 12.7397 17.9754 12.5319 18.45 12.2388V12.4119L19.3004 11.5767C19.7429 11.142 20.0945 10.6235 20.3344 10.0514C20.5744 9.47941 20.698 8.86529 20.698 8.24496C20.698 7.62462 20.5744 7.01051 20.3344 6.43847C20.0948 5.86713 19.7438 5.3492 19.302 4.91484C18.6449 4.25842 17.808 3.8114 16.8971 3.63023C15.9854 3.44892 15.0404 3.54202 14.1816 3.89777C13.3228 4.25351 12.5888 4.85592 12.0724 5.62883C11.5559 6.40173 11.2803 7.3104 11.2803 8.23996C11.2803 9.16951 11.5559 10.0782 12.0724 10.8511C12.5888 11.624 13.3228 12.2264 14.1816 12.5821C15.0404 12.9379 15.9854 13.031 16.8971 12.8497Z" fill="#FCFCFC" stroke="#FCFCFC"></path>
</svg>
