<svg width="24" height="24" viewBox="0 0 24 24" fill="none" xmlns="http://www.w3.org/2000/svg" className="self-stretch flex-grow relative" preserveAspectRatio="none">
	<path d="M1.74999 12C1.74846 10.3128 2.16424 8.65145 2.9603 7.16387C3.67773 5.82323 4.68396 4.66126 5.90389 3.76062L5.62704 3.34367C4.34018 4.29125 3.27898 5.51523 2.52299 6.92797C1.68807 8.48821 1.25122 10.2304 1.25122 12C1.25122 13.7696 1.68807 15.5118 2.52299 17.0721C3.27898 18.4848 4.34018 19.7088 5.62704 20.6564L5.90389 20.2394C4.68396 19.3388 3.67774 18.1768 2.9603 16.8362C2.16424 15.3486 1.74846 13.6872 1.74999 12ZM1.74999 12C1.74999 11.9999 1.74999 11.9997 1.75 11.9995L2.24999 12L1.75 12.0005C1.74999 12.0003 1.74999 12.0002 1.74999 12ZM5.75999 21.36L6.03658 20.9435L5.35014 21.0734C5.48445 21.1718 5.6211 21.2674 5.75999 21.36Z" fill="#FCFCFC" stroke="#FCFCFC"></path>
	<path d="M21.0362 7.16555C20.3193 5.8252 19.3142 4.66296 18.0957 3.76114L18.3729 3.34367C19.6598 4.29125 20.721 5.51523 21.477 6.92797C22.3119 8.48821 22.7487 10.2304 22.7487 12C22.7487 13.7696 22.3119 15.5118 21.477 17.0721C20.721 18.4848 19.6598 19.7088 18.3729 20.6564L18.0957 20.2389C19.3142 19.3371 20.3193 18.1748 21.0362 16.8345C21.8317 15.3472 22.2479 13.6867 22.2479 12C22.2479 10.3134 21.8317 8.6528 21.0362 7.16555Z" fill="#FCFCFC" stroke="#FCFCFC"></path>
	<path d="M8.68161 16.1116L8.41264 16.4958C7.80296 16.0097 7.29713 15.4035 6.92762 14.713C6.48104 13.8785 6.24738 12.9466 6.24738 12C6.24738 11.0535 6.48104 10.1216 6.92762 9.2871C7.29713 8.59658 7.80296 7.99038 8.41264 7.50425L8.72628 7.95231C8.17307 8.39539 7.71402 8.94695 7.37837 9.57476C6.97122 10.3363 6.75821 11.1865 6.75821 12.05C6.75821 12.9136 6.97122 13.7638 7.37837 14.5253C7.70494 15.1362 8.14833 15.6748 8.68161 16.1116Z" fill="#FCFCFC" stroke="#FCFCFC"></path>
	<path d="M17.0624 14.663C16.6949 15.3497 16.1926 15.9531 15.5873 16.4379L15.3092 16.0191C15.8466 15.5809 16.2932 15.0396 16.6217 14.4253C17.0288 13.6638 17.2418 12.8135 17.2418 11.95C17.2418 11.0865 17.0288 10.2362 16.6217 9.47471C16.2951 8.86388 15.8517 8.32522 15.3184 7.88844L15.6062 7.47733C16.203 7.9595 16.6987 8.55744 17.0624 9.23705C17.509 10.0716 17.7427 11.0035 17.7427 11.95C17.7427 12.8965 17.509 13.8284 17.0624 14.663Z" fill="#FCFCFC" stroke="#FCFCFC"></path>
	<path d="M13 12C13 12.5523 12.5523 13 12 13C11.4477 13 11 12.5523 11 12C11 11.4477 11.4477 11 12 11C12.5523 11 13 11.4477 13 12Z" fill="#FCFCFC" stroke="#FCFCFC"></path>
</svg>
